{"glyphs":{"0":{"ha":1017,"x_min":0,"x_max":949,"o":"m 475 949 q 949 475 949 949 q 475 0 949 0 q 0 475 0 0 q 475 949 0 949 m 475 271 q 610 475 610 271 q 475 678 610 678 q 339 475 339 678 q 475 271 339 271 z "},"1":{"ha":543,"x_min":0,"x_max":475,"o":"m 475 949 l 475 0 l 136 0 l 136 610 l 0 610 l 0 814 q 136 949 136 814 l 475 949 z "},"2":{"ha":949,"x_min":0,"x_max":882,"o":"m 475 949 q 882 638 882 949 q 475 339 882 339 l 407 339 q 339 311 339 339 l 339 271 l 882 271 l 882 0 l 0 0 l 0 311 q 407 610 0 610 l 475 610 q 543 638 543 610 q 475 678 543 678 l 0 678 l 0 949 l 475 949 z "},"3":{"ha":949,"x_min":0,"x_max":882,"o":"m 746 475 q 882 271 882 475 q 475 0 882 0 l 0 0 l 0 271 l 475 271 q 543 305 543 271 q 475 339 543 339 l 136 339 l 136 610 l 475 610 q 543 644 543 610 q 475 678 543 678 l 0 678 l 0 949 l 475 949 q 882 678 882 949 q 746 475 882 475 z "},"4":{"ha":1017,"x_min":0,"x_max":949,"o":"m 0 203 l 68 949 l 407 949 l 363 475 l 543 475 l 543 949 l 882 949 l 882 475 l 949 475 l 949 203 l 882 203 l 882 0 l 543 0 l 543 203 l 0 203 z "},"5":{"ha":949,"x_min":0,"x_max":882,"o":"m 0 0 l 0 271 l 475 271 q 543 311 543 271 q 475 339 543 339 l 0 339 l 0 949 l 882 949 l 882 678 l 339 678 l 339 610 l 475 610 q 882 311 882 610 q 475 0 882 0 l 0 0 z "},"6":{"ha":949,"x_min":0,"x_max":882,"o":"m 407 0 q 0 311 0 0 l 0 638 q 407 949 0 949 l 882 949 l 882 678 l 407 678 q 339 610 339 678 l 475 610 q 882 311 882 610 q 475 0 882 0 l 407 0 m 407 271 l 475 271 q 543 311 543 271 q 475 339 543 339 l 339 339 q 407 271 339 271 z "},"7":{"ha":949,"x_min":0,"x_max":882,"o":"m 882 678 q 407 0 475 345 l 68 0 q 456 678 136 407 l 0 678 l 0 949 l 882 949 l 882 678 z "},"8":{"ha":949,"x_min":0,"x_max":882,"o":"m 475 610 q 543 644 543 610 q 475 678 543 678 l 407 678 q 339 644 339 678 q 407 610 339 610 l 475 610 m 407 271 l 475 271 q 543 305 543 271 q 475 339 543 339 l 407 339 q 339 305 339 339 q 407 271 339 271 m 136 475 q 0 678 0 475 q 407 949 0 949 l 475 949 q 882 678 882 949 q 746 475 882 475 q 882 271 882 475 q 475 0 882 0 l 407 0 q 0 271 0 0 q 136 475 0 475 z "},"9":{"ha":949,"x_min":0,"x_max":882,"o":"m 475 949 q 882 638 882 949 l 882 311 q 475 0 882 0 l 0 0 l 0 271 l 475 271 q 543 339 543 271 l 407 339 q 0 638 0 339 q 407 949 0 949 l 475 949 m 475 678 l 407 678 q 339 638 339 678 q 407 610 339 610 l 543 610 q 475 678 543 678 z "},"\u0000":{"ha":0,"x_min":0,"x_max":0,"o":""}," ":{"ha":345,"x_min":0,"x_max":0,"o":""},"!":{"ha":407,"x_min":0,"x_max":339,"o":"m 0 339 l 0 949 l 339 949 l 339 339 l 0 339 m 339 271 l 339 0 l 0 0 l 0 271 l 339 271 z "},"\"":{"ha":814,"x_min":0,"x_max":746,"o":"m 339 949 l 339 746 q 203 543 339 678 l 136 543 q 0 746 0 678 l 0 949 l 339 949 m 746 949 l 746 746 q 610 543 746 678 l 543 543 q 407 746 407 678 l 407 949 l 746 949 z "},"#":{"ha":1017,"x_min":0,"x_max":949,"o":"m 68 407 l 68 543 l 0 543 l 0 814 l 68 814 l 68 949 l 407 949 l 407 814 l 543 814 l 543 949 l 882 949 l 882 814 l 949 814 l 949 543 l 882 543 l 882 407 l 949 407 l 949 136 l 882 136 l 882 0 l 543 0 l 543 136 l 407 136 l 407 0 l 68 0 l 68 136 l 0 136 l 0 407 l 68 407 m 407 543 l 407 407 l 543 407 l 543 543 l 407 543 z "},"$":{"ha":949,"x_min":0,"x_max":882,"o":"m 203 923 l 203 1017 l 407 1017 l 407 949 l 475 949 l 475 1017 l 678 1017 l 678 949 l 882 949 l 882 678 l 407 678 q 339 638 339 678 q 407 610 339 610 l 475 610 q 882 311 882 610 q 678 26 882 91 l 678 -68 l 475 -68 l 475 0 l 407 0 l 407 -68 l 203 -68 l 203 0 l 0 0 l 0 271 l 475 271 q 543 311 543 271 q 475 339 543 339 l 407 339 q 0 638 0 339 q 203 923 0 859 z "},"%":{"ha":882,"x_min":-68,"x_max":882,"o":"m 882 1085 l 475 271 l 271 -136 l -68 -136 l 339 678 l 543 1085 l 882 1085 m 814 271 l 814 0 l 475 0 l 475 271 l 814 271 m 339 949 l 339 678 l 0 678 l 0 949 l 339 949 z "},"&":{"ha":949,"x_min":0,"x_max":882,"o":"m 475 339 l 407 339 q 339 305 339 339 q 407 271 339 271 l 475 271 l 475 339 m 136 475 q 0 678 0 475 q 407 949 0 949 l 746 949 l 746 678 l 407 678 q 339 644 339 678 q 407 610 339 610 l 882 610 l 882 339 l 814 339 l 814 271 l 882 271 l 882 0 l 407 0 q 0 271 0 0 q 136 475 0 475 z "},"'":{"ha":407,"x_min":0,"x_max":339,"o":"m 339 949 l 339 746 q 203 543 339 678 l 136 543 q 0 746 0 678 l 0 949 l 339 949 z "},"(":{"ha":543,"x_min":0,"x_max":475,"o":"m 0 610 q 475 1085 0 1085 l 475 814 q 339 610 339 814 l 339 339 q 475 136 339 136 l 475 -136 q 0 339 0 -136 l 0 610 z "},")":{"ha":543,"x_min":0,"x_max":475,"o":"m 475 339 q 0 -136 475 -136 l 0 136 q 136 339 136 136 l 136 610 q 0 814 136 814 l 0 1085 q 475 610 475 1085 l 475 339 z "},"*":{"ha":746,"x_min":-20,"x_max":703,"o":"m 477 376 l 477 271 l 205 271 l 205 376 l 115 323 l -20 558 l 70 610 l -20 663 l 115 897 l 205 845 l 205 949 l 477 949 l 477 845 l 567 897 l 703 663 l 612 610 l 703 558 l 567 323 l 477 376 z "},"+":{"ha":814,"x_min":0,"x_max":746,"o":"m 543 610 l 746 610 l 746 339 l 543 339 l 543 136 l 203 136 l 203 339 l 0 339 l 0 610 l 203 610 l 203 814 l 543 814 l 543 610 z "},",":{"ha":407,"x_min":0,"x_max":339,"o":"m 136 0 l 0 0 l 0 271 l 339 271 l 339 0 q 0 -203 339 -203 l 0 -68 q 136 0 136 -68 z "},"-":{"ha":746,"x_min":0,"x_max":678,"o":"m 678 610 l 678 339 l 0 339 l 0 610 l 678 610 z "},".":{"ha":407,"x_min":0,"x_max":339,"o":"m 339 271 l 339 0 l 0 0 l 0 271 l 339 271 z "},"/":{"ha":882,"x_min":-68,"x_max":882,"o":"m 882 1085 l 271 -136 l -68 -136 l 543 1085 l 882 1085 z "},":":{"ha":407,"x_min":0,"x_max":339,"o":"m 339 407 l 339 136 l 0 136 l 0 407 l 339 407 m 339 814 l 339 543 l 0 543 l 0 814 l 339 814 z "},";":{"ha":407,"x_min":0,"x_max":339,"o":"m 136 136 l 0 136 l 0 407 l 339 407 l 339 136 q 0 -68 339 -68 l 0 68 q 136 136 135 68 m 339 814 l 339 543 l 0 543 l 0 814 l 339 814 z "},"<":{"ha":1017,"x_min":0,"x_max":949,"o":"m 0 610 l 949 949 l 949 610 l 475 475 l 949 339 l 949 0 l 0 339 l 0 610 z "},"=":{"ha":746,"x_min":0,"x_max":678,"o":"m 678 814 l 678 543 l 0 543 l 0 814 l 678 814 m 678 407 l 678 136 l 0 136 l 0 407 l 678 407 z "},">":{"ha":1017,"x_min":0,"x_max":949,"o":"m 949 339 l 0 0 l 0 339 l 475 475 l 0 610 l 0 949 l 949 610 l 949 339 z "},"?":{"ha":949,"x_min":0,"x_max":882,"o":"m 136 339 l 136 610 l 475 610 q 543 638 543 610 q 475 678 543 678 l 0 678 l 0 949 l 475 949 q 882 638 882 949 q 475 339 882 339 l 136 339 m 475 271 l 475 0 l 136 0 l 136 271 l 475 271 z "},"@":{"ha":1017,"x_min":0,"x_max":949,"o":"m 543 545 q 475 591 524 591 q 398 474 398 591 q 475 357 398 357 q 543 404 524 357 l 543 545 m 677 747 q 475 814 590 814 q 235 714 334 814 q 136 475 136 615 q 235 235 136 334 q 475 136 334 136 q 679 203 591 136 l 543 203 l 543 271 q 475 202 543 203 q 203 474 203 202 q 475 746 203 746 q 543 678 543 746 l 543 747 l 677 747 m 746 271 q 814 475 814 359 q 746 679 814 591 l 746 271 m 810 810 q 880 741 810 810 q 949 475 949 671 q 810 139 949 278 q 475 0 671 0 q 139 139 278 0 q 0 475 0 278 q 139 810 0 671 q 475 949 278 949 q 810 810 671 949 z "},"A":{"ha":1017,"x_min":0,"x_max":949,"o":"m 359 68 l 339 0 l 0 0 l 339 949 l 610 949 l 949 0 l 610 0 l 591 68 l 359 68 m 513 339 l 475 475 l 436 339 l 513 339 z "},"B":{"ha":949,"x_min":0,"x_max":882,"o":"m 339 610 l 475 610 q 543 644 543 610 q 475 678 543 678 l 339 678 l 339 610 m 339 271 l 475 271 q 543 305 543 271 q 475 339 543 339 l 339 339 l 339 271 m 0 0 l 0 949 l 475 949 q 882 678 882 949 q 746 475 882 475 q 882 271 882 475 q 475 0 882 0 l 0 0 z "},"C":{"ha":1017,"x_min":0,"x_max":947,"o":"m 475 271 q 606 407 585 271 l 947 407 q 475 0 914 0 q 0 475 0 0 q 475 949 0 949 q 947 543 914 949 l 606 543 q 475 678 585 678 q 339 475 339 678 q 475 271 339 271 z "},"D":{"ha":1017,"x_min":0,"x_max":949,"o":"m 0 0 l 0 949 l 475 949 q 949 475 949 949 q 475 0 949 0 l 0 0 m 339 678 l 339 271 l 475 271 q 610 475 610 271 q 475 678 610 678 l 339 678 z "},"E":{"ha":882,"x_min":0,"x_max":814,"o":"m 814 949 l 814 678 l 339 678 l 339 610 l 814 610 l 814 339 l 339 339 l 339 271 l 814 271 l 814 0 l 0 0 l 0 949 l 814 949 z "},"F":{"ha":882,"x_min":0,"x_max":814,"o":"m 814 949 l 814 678 l 339 678 l 339 610 l 814 610 l 814 339 l 339 339 l 339 0 l 0 0 l 0 949 l 814 949 z "},"G":{"ha":1017,"x_min":0,"x_max":949,"o":"m 475 678 q 339 475 339 678 q 475 271 339 271 q 586 339 553 271 l 475 339 l 475 610 l 949 610 l 949 0 l 610 0 l 610 68 q 475 0 610 0 q 0 475 0 0 q 475 949 0 949 l 882 949 l 882 678 l 475 678 z "},"H":{"ha":1017,"x_min":0,"x_max":949,"o":"m 0 949 l 339 949 l 339 610 l 610 610 l 610 949 l 949 949 l 949 0 l 610 0 l 610 339 l 339 339 l 339 0 l 0 0 l 0 949 z "},"I":{"ha":407,"x_min":0,"x_max":339,"o":"m 339 949 l 339 0 l 0 0 l 0 949 l 339 949 z "},"J":{"ha":678,"x_min":0,"x_max":610,"o":"m 271 475 l 271 949 l 610 949 l 610 475 q 136 0 610 0 l 0 0 l 0 271 l 136 271 q 271 475 271 271 z "},"K":{"ha":1017,"x_min":0,"x_max":949,"o":"m 339 544 l 577 949 l 949 949 l 661 476 l 949 0 l 577 0 l 339 407 l 339 0 l 0 0 l 0 949 l 339 949 l 339 544 z "},"L":{"ha":882,"x_min":0,"x_max":814,"o":"m 0 949 l 339 949 l 339 271 l 814 271 l 814 0 l 0 0 l 0 949 z "},"M":{"ha":1356,"x_min":0,"x_max":1289,"o":"m 1289 949 l 1289 0 l 949 0 l 949 475 l 814 0 l 475 0 l 339 475 l 339 0 l 0 0 l 0 949 l 475 949 l 644 475 l 814 949 l 1289 949 z "},"N":{"ha":1017,"x_min":0,"x_max":949,"o":"m 339 422 l 339 0 l 0 0 l 0 949 l 339 949 l 610 528 l 610 949 l 949 949 l 949 0 l 610 0 l 339 422 z "},"O":{"ha":1017,"x_min":0,"x_max":949,"o":"m 475 949 q 949 475 949 949 q 475 0 949 0 q 0 475 0 0 q 475 949 0 949 m 475 271 q 610 475 610 271 q 475 678 610 678 q 339 475 339 678 q 475 271 339 271 z "},"P":{"ha":949,"x_min":0,"x_max":882,"o":"m 339 271 l 339 0 l 0 0 l 0 949 l 475 949 q 882 610 882 949 q 475 271 882 271 l 339 271 m 339 678 l 339 543 l 475 543 q 543 610 543 543 q 475 678 543 678 l 339 678 z "},"Q":{"ha":1017,"x_min":0,"x_max":949,"o":"m 475 271 q 610 475 610 271 q 475 678 610 678 q 339 475 339 678 q 475 271 339 271 m 459 0 q 0 475 0 7 q 475 949 0 949 q 949 475 949 949 q 705 38 949 134 q 784 -8 729 -8 l 882 -8 l 882 -203 l 784 -203 q 459 0 520 -203 z "},"R":{"ha":949,"x_min":0,"x_max":882,"o":"m 339 678 l 339 543 l 475 543 q 543 610 543 543 q 475 678 543 678 l 339 678 m 339 271 l 339 0 l 0 0 l 0 949 l 475 949 q 882 610 882 949 q 741 329 882 411 l 882 0 l 543 0 l 427 271 l 339 271 z "},"S":{"ha":949,"x_min":0,"x_max":882,"o":"m 882 949 l 882 678 l 407 678 q 339 638 339 678 q 407 610 339 610 l 475 610 q 882 311 882 610 q 475 0 882 0 l 0 0 l 0 271 l 475 271 q 543 311 543 271 q 475 339 543 339 l 407 339 q 0 638 0 339 q 407 949 0 949 l 882 949 z "},"T":{"ha":949,"x_min":0,"x_max":882,"o":"m 610 678 l 610 0 l 271 0 l 271 678 l 0 678 l 0 949 l 882 949 l 882 678 l 610 678 z "},"U":{"ha":1017,"x_min":0,"x_max":949,"o":"m 0 475 l 0 949 l 339 949 l 339 475 q 475 271 339 271 q 610 475 610 271 l 610 949 l 949 949 l 949 475 q 475 0 949 0 q 0 475 0 0 z "},"V":{"ha":1017,"x_min":0,"x_max":949,"o":"m 339 0 l 0 949 l 339 949 l 475 475 l 610 949 l 949 949 l 610 0 l 339 0 z "},"W":{"ha":1628,"x_min":0,"x_max":1560,"o":"m 780 475 l 610 0 l 339 0 l 0 949 l 339 949 l 475 475 l 610 949 l 949 949 l 1085 475 l 1221 949 l 1560 949 l 1221 0 l 949 0 l 780 475 z "},"X":{"ha":1017,"x_min":0,"x_max":949,"o":"m 289 475 l 0 949 l 373 949 l 474 746 l 577 949 l 949 949 l 661 476 l 949 0 l 577 0 l 475 203 l 370 0 l 0 0 l 289 475 z "},"Y":{"ha":1017,"x_min":0,"x_max":949,"o":"m 305 400 l 0 949 l 373 949 l 474 746 l 577 949 l 949 949 l 644 400 l 644 0 l 305 0 l 305 400 z "},"Z":{"ha":882,"x_min":0,"x_max":814,"o":"m 814 949 l 814 678 l 407 271 l 814 271 l 814 0 l 0 0 l 0 271 l 407 678 l 0 678 l 0 949 l 814 949 z "},"[":{"ha":543,"x_min":0,"x_max":475,"o":"m 475 1085 l 475 814 l 339 814 l 339 136 l 475 136 l 475 -136 l 0 -136 l 0 1085 l 475 1085 z "},"\\":{"ha":882,"x_min":-68,"x_max":882,"o":"m 271 1085 l 882 -136 l 543 -136 l -68 1085 l 271 1085 z "},"]":{"ha":543,"x_min":0,"x_max":475,"o":"m 475 1085 l 475 -136 l 0 -136 l 0 136 l 136 136 l 136 814 l 0 814 l 0 1085 l 475 1085 z "},"^":{"ha":688,"x_min":0,"x_max":0,"o":""},"_":{"ha":882,"x_min":0,"x_max":814,"o":"m 814 271 l 814 0 l 0 0 l 0 271 l 814 271 z "},"`":{"ha":475,"x_min":0,"x_max":420,"o":"m 339 949 l 400 746 q 326 543 420 678 l 258 543 q 61 746 81 678 l 0 949 l 339 949 z "},"a":{"ha":1017,"x_min":0,"x_max":949,"o":"m 359 68 l 339 0 l 0 0 l 339 949 l 610 949 l 949 0 l 610 0 l 591 68 l 359 68 m 513 339 l 475 475 l 436 339 l 513 339 z "},"b":{"ha":949,"x_min":0,"x_max":882,"o":"m 339 610 l 475 610 q 543 644 543 610 q 475 678 543 678 l 339 678 l 339 610 m 339 271 l 475 271 q 543 305 543 271 q 475 339 543 339 l 339 339 l 339 271 m 0 0 l 0 949 l 475 949 q 882 678 882 949 q 746 475 882 475 q 882 271 882 475 q 475 0 882 0 l 0 0 z "},"c":{"ha":1017,"x_min":0,"x_max":947,"o":"m 475 271 q 606 407 585 271 l 947 407 q 475 0 914 0 q 0 475 0 0 q 475 949 0 949 q 947 543 914 949 l 606 543 q 475 678 585 678 q 339 475 339 678 q 475 271 339 271 z "},"d":{"ha":1017,"x_min":0,"x_max":949,"o":"m 0 0 l 0 949 l 475 949 q 949 475 949 949 q 475 0 949 0 l 0 0 m 339 678 l 339 271 l 475 271 q 610 475 610 271 q 475 678 610 678 l 339 678 z "},"e":{"ha":882,"x_min":0,"x_max":814,"o":"m 814 949 l 814 678 l 339 678 l 339 610 l 814 610 l 814 339 l 339 339 l 339 271 l 814 271 l 814 0 l 0 0 l 0 949 l 814 949 z "},"f":{"ha":882,"x_min":0,"x_max":814,"o":"m 814 949 l 814 678 l 339 678 l 339 610 l 814 610 l 814 339 l 339 339 l 339 0 l 0 0 l 0 949 l 814 949 z "},"g":{"ha":1017,"x_min":0,"x_max":949,"o":"m 475 678 q 339 475 339 678 q 475 271 339 271 q 586 339 553 271 l 475 339 l 475 610 l 949 610 l 949 0 l 610 0 l 610 68 q 475 0 610 0 q 0 475 0 0 q 475 949 0 949 l 882 949 l 882 678 l 475 678 z "},"h":{"ha":1017,"x_min":0,"x_max":949,"o":"m 0 949 l 339 949 l 339 610 l 610 610 l 610 949 l 949 949 l 949 0 l 610 0 l 610 339 l 339 339 l 339 0 l 0 0 l 0 949 z "},"i":{"ha":407,"x_min":0,"x_max":339,"o":"m 339 949 l 339 0 l 0 0 l 0 949 l 339 949 z "},"j":{"ha":678,"x_min":0,"x_max":610,"o":"m 271 475 l 271 949 l 610 949 l 610 475 q 136 0 610 0 l 0 0 l 0 271 l 136 271 q 271 475 271 271 z "},"k":{"ha":1017,"x_min":0,"x_max":949,"o":"m 339 544 l 577 949 l 949 949 l 661 476 l 949 0 l 577 0 l 339 407 l 339 0 l 0 0 l 0 949 l 339 949 l 339 544 z "},"l":{"ha":882,"x_min":0,"x_max":814,"o":"m 0 949 l 339 949 l 339 271 l 814 271 l 814 0 l 0 0 l 0 949 z "},"m":{"ha":1356,"x_min":0,"x_max":1289,"o":"m 1289 949 l 1289 0 l 949 0 l 949 475 l 814 0 l 475 0 l 339 475 l 339 0 l 0 0 l 0 949 l 475 949 l 644 475 l 814 949 l 1289 949 z "},"n":{"ha":1017,"x_min":0,"x_max":949,"o":"m 339 422 l 339 0 l 0 0 l 0 949 l 339 949 l 610 528 l 610 949 l 949 949 l 949 0 l 610 0 l 339 422 z "},"o":{"ha":1017,"x_min":0,"x_max":949,"o":"m 475 949 q 949 475 949 949 q 475 0 949 0 q 0 475 0 0 q 475 949 0 949 m 475 271 q 610 475 610 271 q 475 678 610 678 q 339 475 339 678 q 475 271 339 271 z "},"p":{"ha":949,"x_min":0,"x_max":882,"o":"m 339 271 l 339 0 l 0 0 l 0 949 l 475 949 q 882 610 882 949 q 475 271 882 271 l 339 271 m 339 678 l 339 543 l 475 543 q 543 610 543 543 q 475 678 543 678 l 339 678 z "},"q":{"ha":1017,"x_min":0,"x_max":949,"o":"m 475 271 q 610 475 610 271 q 475 678 610 678 q 339 475 339 678 q 475 271 339 271 m 459 0 q 0 475 0 7 q 475 949 0 949 q 949 475 949 949 q 705 38 949 134 q 784 -8 729 -8 l 882 -8 l 882 -203 l 784 -203 q 459 0 520 -203 z "},"r":{"ha":949,"x_min":0,"x_max":882,"o":"m 339 678 l 339 543 l 475 543 q 543 610 543 543 q 475 678 543 678 l 339 678 m 339 271 l 339 0 l 0 0 l 0 949 l 475 949 q 882 610 882 949 q 741 329 882 411 l 882 0 l 543 0 l 427 271 l 339 271 z "},"s":{"ha":949,"x_min":0,"x_max":882,"o":"m 882 949 l 882 678 l 407 678 q 339 638 339 678 q 407 610 339 610 l 475 610 q 882 311 882 610 q 475 0 882 0 l 0 0 l 0 271 l 475 271 q 543 311 543 271 q 475 339 543 339 l 407 339 q 0 638 0 339 q 407 949 0 949 l 882 949 z "},"t":{"ha":949,"x_min":0,"x_max":882,"o":"m 610 678 l 610 0 l 271 0 l 271 678 l 0 678 l 0 949 l 882 949 l 882 678 l 610 678 z "},"u":{"ha":1017,"x_min":0,"x_max":949,"o":"m 0 475 l 0 949 l 339 949 l 339 475 q 475 271 339 271 q 610 475 610 271 l 610 949 l 949 949 l 949 475 q 475 0 949 0 q 0 475 0 0 z "},"v":{"ha":1017,"x_min":0,"x_max":949,"o":"m 339 0 l 0 949 l 339 949 l 475 475 l 610 949 l 949 949 l 610 0 l 339 0 z "},"w":{"ha":1628,"x_min":0,"x_max":1560,"o":"m 780 475 l 610 0 l 339 0 l 0 949 l 339 949 l 475 475 l 610 949 l 949 949 l 1085 475 l 1221 949 l 1560 949 l 1221 0 l 949 0 l 780 475 z "},"x":{"ha":1017,"x_min":0,"x_max":949,"o":"m 289 475 l 0 949 l 373 949 l 474 746 l 577 949 l 949 949 l 661 476 l 949 0 l 577 0 l 475 203 l 370 0 l 0 0 l 289 475 z "},"y":{"ha":1017,"x_min":0,"x_max":949,"o":"m 305 400 l 0 949 l 373 949 l 474 746 l 577 949 l 949 949 l 644 400 l 644 0 l 305 0 l 305 400 z "},"z":{"ha":882,"x_min":0,"x_max":814,"o":"m 814 949 l 814 678 l 407 271 l 814 271 l 814 0 l 0 0 l 0 271 l 407 678 l 0 678 l 0 949 l 814 949 z "},"{":{"ha":678,"x_min":0,"x_max":610,"o":"m 475 271 q 610 136 475 136 l 610 -136 q 136 271 136 -136 q 0 339 136 339 l 0 610 q 136 678 136 610 q 610 1085 136 1085 l 610 814 q 475 678 475 814 q 410 475 475 553 q 475 271 475 396 z "},"|":{"ha":407,"x_min":0,"x_max":339,"o":"m 339 1085 l 339 -136 l 0 -136 l 0 1085 l 339 1085 z "},"}":{"ha":678,"x_min":0,"x_max":610,"o":"m 136 271 q 200 475 136 396 q 136 678 136 553 q 0 814 136 814 l 0 1085 q 475 678 475 1085 q 610 610 475 610 l 610 339 q 475 271 475 339 q 0 -136 475 -136 l 0 136 q 136 271 136 136 z "},"~":{"ha":688,"x_min":0,"x_max":0,"o":""},"¡":{"ha":456,"x_min":0,"x_max":0,"o":""},"¢":{"ha":772,"x_min":0,"x_max":0,"o":""},"£":{"ha":688,"x_min":0,"x_max":0,"o":""},"¤":{"ha":688,"x_min":0,"x_max":0,"o":""},"¥":{"ha":856,"x_min":0,"x_max":0,"o":""},"¦":{"ha":688,"x_min":0,"x_max":0,"o":""},"§":{"ha":688,"x_min":0,"x_max":0,"o":""},"¨":{"ha":694,"x_min":0,"x_max":0,"o":""},"©":{"ha":1017,"x_min":0,"x_max":949,"o":"m 475 357 q 551 435 539 357 l 746 435 q 475 202 727 202 q 203 474 203 202 q 475 746 203 746 q 746 513 727 746 l 551 513 q 475 591 539 591 q 398 474 398 591 q 475 357 398 357 m 475 949 q 810 810 671 949 q 949 475 949 671 q 810 139 949 278 q 475 0 671 0 q 139 139 278 0 q 0 475 0 278 q 139 810 0 671 q 475 949 278 949 m 475 814 q 235 714 334 814 q 136 475 136 615 q 235 235 136 334 q 475 136 334 136 q 714 235 615 136 q 814 475 814 334 q 714 714 814 615 q 475 814 615 814 z "},"ª":{"ha":439,"x_min":0,"x_max":0,"o":""},"«":{"ha":640,"x_min":0,"x_max":0,"o":""},"¬":{"ha":688,"x_min":0,"x_max":0,"o":""},"®":{"ha":1135,"x_min":0,"x_max":0,"o":""},"¯":{"ha":454,"x_min":0,"x_max":0,"o":""},"°":{"ha":457,"x_min":0,"x_max":0,"o":""},"±":{"ha":688,"x_min":0,"x_max":0,"o":""},"²":{"ha":688,"x_min":0,"x_max":0,"o":""},"³":{"ha":688,"x_min":0,"x_max":0,"o":""},"´":{"ha":694,"x_min":0,"x_max":0,"o":""},"µ":{"ha":800,"x_min":0,"x_max":0,"o":""},"¶":{"ha":694,"x_min":0,"x_max":0,"o":""},"·":{"ha":345,"x_min":0,"x_max":0,"o":""},"¸":{"ha":694,"x_min":0,"x_max":0,"o":""},"¹":{"ha":688,"x_min":0,"x_max":0,"o":""},"º":{"ha":487,"x_min":0,"x_max":0,"o":""},"»":{"ha":640,"x_min":0,"x_max":0,"o":""},"¼":{"ha":1158,"x_min":0,"x_max":0,"o":""},"½":{"ha":1332,"x_min":0,"x_max":0,"o":""},"¾":{"ha":1158,"x_min":0,"x_max":0,"o":""},"¿":{"ha":507,"x_min":0,"x_max":0,"o":""},"À":{"ha":1044,"x_min":0,"x_max":0,"o":""},"Á":{"ha":1044,"x_min":0,"x_max":0,"o":""},"Â":{"ha":1044,"x_min":0,"x_max":0,"o":""},"Ã":{"ha":1044,"x_min":0,"x_max":0,"o":""},"Ä":{"ha":1044,"x_min":0,"x_max":0,"o":""},"Å":{"ha":1044,"x_min":0,"x_max":0,"o":""},"Æ":{"ha":1436,"x_min":0,"x_max":0,"o":""},"Ç":{"ha":949,"x_min":0,"x_max":0,"o":""},"È":{"ha":781,"x_min":0,"x_max":0,"o":""},"É":{"ha":781,"x_min":0,"x_max":0,"o":""},"Ê":{"ha":781,"x_min":0,"x_max":0,"o":""},"Ë":{"ha":781,"x_min":0,"x_max":0,"o":""},"Ì":{"ha":446,"x_min":0,"x_max":0,"o":""},"Í":{"ha":446,"x_min":0,"x_max":0,"o":""},"Î":{"ha":446,"x_min":0,"x_max":0,"o":""},"Ï":{"ha":446,"x_min":0,"x_max":0,"o":""},"Ð":{"ha":1029,"x_min":0,"x_max":0,"o":""},"Ñ":{"ha":1054,"x_min":0,"x_max":0,"o":""},"Ò":{"ha":1095,"x_min":0,"x_max":0,"o":""},"Ó":{"ha":1095,"x_min":0,"x_max":0,"o":""},"Ô":{"ha":1095,"x_min":0,"x_max":0,"o":""},"Õ":{"ha":1095,"x_min":0,"x_max":0,"o":""},"Ö":{"ha":1095,"x_min":0,"x_max":0,"o":""},"×":{"ha":688,"x_min":0,"x_max":0,"o":""},"Ø":{"ha":1095,"x_min":0,"x_max":0,"o":""},"Ù":{"ha":1018,"x_min":0,"x_max":0,"o":""},"Ú":{"ha":1018,"x_min":0,"x_max":0,"o":""},"Û":{"ha":1018,"x_min":0,"x_max":0,"o":""},"Ü":{"ha":1018,"x_min":0,"x_max":0,"o":""},"Ý":{"ha":836,"x_min":0,"x_max":0,"o":""},"Þ":{"ha":760,"x_min":0,"x_max":0,"o":""},"ß":{"ha":848,"x_min":0,"x_max":0,"o":""},"à":{"ha":625,"x_min":0,"x_max":0,"o":""},"á":{"ha":625,"x_min":0,"x_max":0,"o":""},"â":{"ha":625,"x_min":0,"x_max":0,"o":""},"ã":{"ha":625,"x_min":0,"x_max":0,"o":""},"ä":{"ha":625,"x_min":0,"x_max":0,"o":""},"å":{"ha":625,"x_min":0,"x_max":0,"o":""},"æ":{"ha":986,"x_min":0,"x_max":0,"o":""},"ç":{"ha":614,"x_min":0,"x_max":0,"o":""},"è":{"ha":616,"x_min":0,"x_max":0,"o":""},"é":{"ha":616,"x_min":0,"x_max":0,"o":""},"ê":{"ha":616,"x_min":0,"x_max":0,"o":""},"ë":{"ha":616,"x_min":0,"x_max":0,"o":""},"ì":{"ha":349,"x_min":0,"x_max":0,"o":""},"í":{"ha":349,"x_min":0,"x_max":0,"o":""},"î":{"ha":349,"x_min":0,"x_max":0,"o":""},"ï":{"ha":349,"x_min":0,"x_max":0,"o":""},"ð":{"ha":772,"x_min":0,"x_max":0,"o":""},"ñ":{"ha":751,"x_min":0,"x_max":0,"o":""},"ò":{"ha":685,"x_min":0,"x_max":0,"o":""},"ó":{"ha":685,"x_min":0,"x_max":0,"o":""},"ô":{"ha":685,"x_min":0,"x_max":0,"o":""},"õ":{"ha":685,"x_min":0,"x_max":0,"o":""},"ö":{"ha":685,"x_min":0,"x_max":0,"o":""},"÷":{"ha":688,"x_min":0,"x_max":0,"o":""},"ø":{"ha":685,"x_min":0,"x_max":0,"o":""},"ù":{"ha":718,"x_min":0,"x_max":0,"o":""},"ú":{"ha":718,"x_min":0,"x_max":0,"o":""},"û":{"ha":718,"x_min":0,"x_max":0,"o":""},"ü":{"ha":718,"x_min":0,"x_max":0,"o":""},"ý":{"ha":589,"x_min":0,"x_max":0,"o":""},"þ":{"ha":685,"x_min":0,"x_max":0,"o":""},"ÿ":{"ha":589,"x_min":0,"x_max":0,"o":""},"ı":{"ha":349,"x_min":0,"x_max":0,"o":""},"ˆ":{"ha":694,"x_min":0,"x_max":0,"o":""},"ˇ":{"ha":694,"x_min":0,"x_max":0,"o":""},"ˉ":{"ha":694,"x_min":0,"x_max":0,"o":""},"˘":{"ha":694,"x_min":0,"x_max":0,"o":""},"˙":{"ha":694,"x_min":0,"x_max":0,"o":""},"˚":{"ha":694,"x_min":0,"x_max":0,"o":""},"˛":{"ha":694,"x_min":0,"x_max":0,"o":""},"˜":{"ha":694,"x_min":0,"x_max":0,"o":""},"˝":{"ha":694,"x_min":0,"x_max":0,"o":""},"–":{"ha":751,"x_min":0,"x_max":0,"o":""},"—":{"ha":1389,"x_min":0,"x_max":0,"o":""},"‘":{"ha":378,"x_min":0,"x_max":0,"o":""},"’":{"ha":378,"x_min":0,"x_max":0,"o":""},"‚":{"ha":378,"x_min":0,"x_max":0,"o":""},"“":{"ha":617,"x_min":0,"x_max":0,"o":""},"”":{"ha":617,"x_min":0,"x_max":0,"o":""},"„":{"ha":617,"x_min":0,"x_max":0,"o":""},"†":{"ha":688,"x_min":0,"x_max":0,"o":""},"‡":{"ha":688,"x_min":0,"x_max":0,"o":""},"•":{"ha":694,"x_min":0,"x_max":0,"o":""},"…":{"ha":1389,"x_min":0,"x_max":0,"o":""},"‹":{"ha":428,"x_min":0,"x_max":0,"o":""},"›":{"ha":428,"x_min":0,"x_max":0,"o":""},"⁄":{"ha":232,"x_min":0,"x_max":0,"o":""},"₣":{"ha":688,"x_min":0,"x_max":0,"o":""},"₤":{"ha":688,"x_min":0,"x_max":0,"o":""},"₧":{"ha":1375,"x_min":0,"x_max":0,"o":""},"€":{"ha":688,"x_min":0,"x_max":0,"o":""},"№":{"ha":1540,"x_min":0,"x_max":0,"o":""},"™":{"ha":1015,"x_min":0,"x_max":0,"o":""},"∂":{"ha":688,"x_min":0,"x_max":0,"o":""},"∆":{"ha":733,"x_min":0,"x_max":0,"o":""},"∏":{"ha":1027,"x_min":0,"x_max":0,"o":""},"∑":{"ha":818,"x_min":0,"x_max":0,"o":""},"−":{"ha":688,"x_min":0,"x_max":0,"o":""},"√":{"ha":688,"x_min":0,"x_max":0,"o":""},"∞":{"ha":688,"x_min":0,"x_max":0,"o":""},"∫":{"ha":451,"x_min":0,"x_max":0,"o":""},"≈":{"ha":688,"x_min":0,"x_max":0,"o":""},"≤":{"ha":688,"x_min":0,"x_max":0,"o":""},"≥":{"ha":688,"x_min":0,"x_max":0,"o":""},"":{"ha":728,"x_min":0,"x_max":0,"o":""},"":{"ha":733,"x_min":0,"x_max":0,"o":""}}}
